<?xml version="1.0" encoding="utf-8"?>
<!-- Generator: Adobe Illustrator 15.0.0, SVG Export Plug-In . SVG Version: 6.00 Build 0)  -->
<!DOCTYPE svg PUBLIC "-//W3C//DTD SVG 1.1//EN" "http://www.w3.org/Graphics/SVG/1.1/DTD/svg11.dtd">
<svg version="1.1" id="LinkedIn" xmlns="http://www.w3.org/2000/svg" xmlns:xlink="http://www.w3.org/1999/xlink" x="0px" y="0px"
	 width="800px" height="600px" viewBox="0 0 800 600" enable-background="new 0 0 800 600" xml:space="preserve">
<g>
	<path fill="#727C80" d="M250,90c0,31.86-21.3,59.28-60.03,59.28c-36.45,0-59.97-25.86-59.97-57.72C130,58.86,152.8,30,190,30
		S249.28,57.3,250,90z M130,570V180h120v390H130z"/>
	<path fill="#727C80" d="M310,313.32c0-46.35-1.53-85.08-3.06-118.53h107.82l5.34,51.69h2.28c15.18-24.33,52.38-60,114.66-60
		C613,186.48,670,237.33,670,346.74V570H550V364.17c0-47.82-18.21-84.3-60-84.3c-31.86,0-47.82,25.8-56.19,47.07
		c-3.06,7.619-3.81,18.239-3.81,28.89V570H310V313.32z"/>
</g>
</svg>
