<?xml version="1.0" encoding="utf-8"?>
<!-- Generator: Adobe Illustrator 15.0.0, SVG Export Plug-In . SVG Version: 6.00 Build 0)  -->
<!DOCTYPE svg PUBLIC "-//W3C//DTD SVG 1.1//EN" "http://www.w3.org/Graphics/SVG/1.1/DTD/svg11.dtd">
<svg version="1.1" id="Twitter" xmlns="http://www.w3.org/2000/svg" xmlns:xlink="http://www.w3.org/1999/xlink" x="0px" y="0px"
	 width="800px" height="600px" viewBox="0 0 800 600" enable-background="new 0 0 800 600" xml:space="preserve">
<path fill="#727C80" d="M619.48,187.38c0.239,4.86,0.329,9.78,0.329,14.64c0,149.7-113.909,322.26-322.2,322.26
	c-63.99,0-123.48-18.75-173.61-50.91c8.88,1.05,17.88,1.59,27,1.59c53.1,0,101.91-18.12,140.64-48.45
	c-49.53-0.93-91.38-33.63-105.78-78.63c6.9,1.29,14.01,1.98,21.3,1.98c10.35,0,20.37-1.351,29.85-3.931
	c-51.81-10.439-90.84-56.189-90.84-111.09c0-0.48,0-0.93,0-1.41c15.27,8.49,32.76,13.59,51.3,14.19
	c-30.39-20.34-50.4-54.96-50.4-94.29c0-20.73,5.58-40.2,15.36-56.94C218.26,164.94,301.75,210,395.86,214.74
	c-1.92-8.31-2.91-16.92-2.91-25.83c0-62.52,50.67-113.19,113.22-113.19c32.58,0,62.01,13.71,82.68,35.73
	c25.771-5.1,50.011-14.52,71.91-27.48c-8.46,26.43-26.43,48.63-49.8,62.64c22.92-2.76,44.7-8.79,65.04-17.82
	C660.82,151.53,641.62,171.45,619.48,187.38z"/>
</svg>
