<?xml version="1.0" encoding="utf-8"?>
<!-- Generator: Adobe Illustrator 15.0.0, SVG Export Plug-In . SVG Version: 6.00 Build 0)  -->
<!DOCTYPE svg PUBLIC "-//W3C//DTD SVG 1.1//EN" "http://www.w3.org/Graphics/SVG/1.1/DTD/svg11.dtd">
<svg version="1.1" id="Behance" xmlns="http://www.w3.org/2000/svg" xmlns:xlink="http://www.w3.org/1999/xlink" x="0px" y="0px"
	 width="800px" height="600px" viewBox="0 0 800 600" enable-background="new 0 0 800 600" xml:space="preserve">
<path fill="#727C80" d="M342.16,279.03c0,0,56.76-4.41,56.76-73.77c0-69.45-46.44-103.23-105.3-103.23H100v387.78h193.62
	c0,0,118.229,3.87,118.229-114.479C411.82,375.3,416.98,279.03,342.16,279.03z M185.32,170.91h108.3c0,0,26.34,0,26.34,40.32
	c0,40.38-15.48,46.23-33.06,46.23H185.32V170.91z M288.13,420.87H185.32V317.22h108.3c0,0,39.24-0.54,39.24,53.25
	C332.86,415.83,303.55,420.54,288.13,420.87z M569.47,200.64c-143.13,0-143.01,149.01-143.01,149.01S416.68,497.88,569.47,497.88
	c0,0,127.29,7.62,127.29-103.11H631.3c0,0,2.16,41.73-59.64,41.73c0,0-65.521,4.56-65.521-67.5h192.69
	C698.86,368.97,720.1,200.64,569.47,200.64z M627.7,317.22H505.48c0,0,7.979-59.76,65.46-59.76
	C628.42,257.46,627.7,317.22,627.7,317.22z M642.91,124.8H489.4v47.82h153.51V124.8z"/>
</svg>
