<?xml version="1.0" encoding="utf-8"?>
<!-- Generator: Adobe Illustrator 15.0.0, SVG Export Plug-In . SVG Version: 6.00 Build 0)  -->
<!DOCTYPE svg PUBLIC "-//W3C//DTD SVG 1.1//EN" "http://www.w3.org/Graphics/SVG/1.1/DTD/svg11.dtd">
<svg version="1.1" id="Dribbble" xmlns="http://www.w3.org/2000/svg" xmlns:xlink="http://www.w3.org/1999/xlink" x="0px" y="0px"
	 width="800px" height="600px" viewBox="0 0 800 600" enable-background="new 0 0 800 600" xml:space="preserve">
<path fill="#727C80" d="M386.95,222.63c-40.74-72.42-84.33-131.49-87.51-135.84c-65.73,31.08-114.78,91.65-130.11,164.61
	C175.51,251.52,273.79,252.69,386.95,222.63z M416.29,301.83c3.06-0.99,6.18-1.92,9.27-2.82c-5.909-13.41-12.359-26.85-19.109-40.08
	c-121.38,36.36-237.84,33.72-241.95,33.6c-0.09,2.52-0.21,4.98-0.21,7.5c0,60.57,22.89,115.831,60.48,157.56l-0.15-0.18
	C224.62,457.41,289.12,342.99,416.29,301.83z M255.13,485.82v-0.12c-1.74-1.351-3.6-2.58-5.34-4.05
	C252.97,484.2,255.13,485.82,255.13,485.82z M343.54,71.16c-0.21,0.06-0.45,0.12-0.45,0.12c0.18-0.061,0.42-0.061,0.42-0.061
	L343.54,71.16z M555.67,123.12C514.15,86.58,459.7,64.29,400,64.29c-19.17,0-37.74,2.34-55.56,6.63
	c3.6,4.8,47.85,63.57,88.14,137.52C521.44,175.17,555.01,124.08,555.67,123.12z M400,576c-152.4,0-275.97-123.57-275.97-275.97
	C124,147.57,247.57,24,400,24c152.46,0,276,123.57,276,276.03C676,452.43,552.46,576,400,576z M440.08,338.58
	C301.75,386.79,256.06,483.72,255.13,485.7c40.02,31.229,90.18,49.979,144.84,49.979c32.641,0,63.75-6.63,92.011-18.63
	c-3.48-20.67-17.19-92.88-50.37-179.01C441.13,338.22,440.62,338.4,440.08,338.58z M450.7,243.6
	c5.52,11.19,10.74,22.62,15.689,34.17c1.771,4.05,3.42,8.16,5.101,12.18c81.39-10.26,161.55,7.14,164.189,7.68
	c-0.569-55.89-20.58-107.16-53.609-147.36C581.53,150.96,543.7,205.56,450.7,243.6z M485.83,327.15
	c30.93,85.08,43.47,154.26,45.87,168.33c52.92-35.73,90.54-92.4,101.01-158.101C628.03,335.88,562.03,314.97,485.83,327.15z"/>
</svg>
